<mxfile host="app.diagrams.net" modified="2023-11-20T16:16:17.883Z" agent="Mozilla/5.0 (Windows NT 10.0; Win64; x64) AppleWebKit/537.36 (KHTML, like Gecko) Chrome/119.0.0.0 Safari/537.36" etag="4iQfOXOjvYLag94GawJt" version="22.1.3" type="github">
  <diagram name="Page-1" id="34vSPF7-1cS6kKB8NO-8">
    <mxGraphModel dx="3677" dy="1801" grid="1" gridSize="10" guides="1" tooltips="1" connect="1" arrows="1" fold="1" page="1" pageScale="1" pageWidth="827" pageHeight="1169" math="0" shadow="0">
      <root>
        <mxCell id="0" />
        <mxCell id="1" parent="0" />
        <mxCell id="T6Oe0h_qcBVAluAfO9DY-1" value="" style="whiteSpace=wrap;html=1;aspect=fixed;dashed=1;rounded=0;glass=1;shadow=1;fillColor=#F2F2F2;sketch=1;curveFitting=1;jiggle=2;movable=0;resizable=0;rotatable=0;deletable=0;editable=0;locked=1;connectable=0;" parent="1" vertex="1">
          <mxGeometry x="-1650" y="770" width="1100" height="1100" as="geometry" />
        </mxCell>
        <mxCell id="T6Oe0h_qcBVAluAfO9DY-2" value="" style="whiteSpace=wrap;html=1;aspect=fixed;fillColor=#D9777F;" parent="1" vertex="1">
          <mxGeometry x="-1586.9899999999998" y="1612" width="110" height="110" as="geometry" />
        </mxCell>
        <mxCell id="T6Oe0h_qcBVAluAfO9DY-3" value="" style="whiteSpace=wrap;html=1;aspect=fixed;strokeColor=#000000;fillColor=#D9777F;" parent="1" vertex="1">
          <mxGeometry x="-1586.9899999999998" y="1406" width="110" height="110" as="geometry" />
        </mxCell>
        <mxCell id="T6Oe0h_qcBVAluAfO9DY-4" value="" style="whiteSpace=wrap;html=1;aspect=fixed;fillColor=#D9777F;strokeColor=#000000;" parent="1" vertex="1">
          <mxGeometry x="-1586.9899999999998" y="1203" width="110" height="110" as="geometry" />
        </mxCell>
        <mxCell id="T6Oe0h_qcBVAluAfO9DY-5" value="&lt;font color=&quot;#ffffff&quot; style=&quot;font-size: 26px;&quot;&gt;Diagramme de Cas d&#39;utilisation&lt;/font&gt;" style="rounded=0;whiteSpace=wrap;html=1;fillColor=#D94350;" parent="1" vertex="1">
          <mxGeometry x="-1574.5" y="785" width="768.5" height="100" as="geometry" />
        </mxCell>
        <mxCell id="T6Oe0h_qcBVAluAfO9DY-6" value="" style="whiteSpace=wrap;html=1;aspect=fixed;fillColor=#D92332;movable=0;resizable=0;rotatable=0;deletable=0;editable=0;locked=1;connectable=0;" parent="1" vertex="1">
          <mxGeometry x="-1438" y="905" width="865" height="865" as="geometry" />
        </mxCell>
        <mxCell id="T6Oe0h_qcBVAluAfO9DY-7" value="Connecté (Rôle = Utilisateur)" style="shape=umlActor;verticalLabelPosition=bottom;verticalAlign=top;html=1;outlineConnect=0;" parent="1" vertex="1">
          <mxGeometry x="-1575.5" y="1139" width="87" height="174" as="geometry" />
        </mxCell>
        <mxCell id="T6Oe0h_qcBVAluAfO9DY-8" value="Connecté&amp;nbsp;(Rôle = Employé)" style="shape=umlActor;verticalLabelPosition=bottom;verticalAlign=top;html=1;outlineConnect=0;" parent="1" vertex="1">
          <mxGeometry x="-1575.5" y="1342" width="87" height="174" as="geometry" />
        </mxCell>
        <mxCell id="T6Oe0h_qcBVAluAfO9DY-9" value="Connecté (Rôle = Admin)" style="shape=umlActor;verticalLabelPosition=bottom;verticalAlign=top;html=1;outlineConnect=0;" parent="1" vertex="1">
          <mxGeometry x="-1574.5" y="1548" width="87" height="174" as="geometry" />
        </mxCell>
        <mxCell id="T6Oe0h_qcBVAluAfO9DY-10" value="&lt;font color=&quot;#f2f2f2&quot;&gt;Rechercher véhicules&lt;/font&gt;" style="rounded=1;whiteSpace=wrap;html=1;fillColor=#262526;" parent="1" vertex="1">
          <mxGeometry x="-1123.27" y="915" width="143.27" height="65" as="geometry" />
        </mxCell>
        <mxCell id="T6Oe0h_qcBVAluAfO9DY-11" value="&lt;font color=&quot;#f2f2f2&quot;&gt;S&#39;inscrire/créer un compte d&#39;utilisateur&lt;/font&gt;" style="rounded=1;whiteSpace=wrap;html=1;fillColor=#262526;" parent="1" vertex="1">
          <mxGeometry x="-1121.25" y="985" width="141.25" height="70" as="geometry" />
        </mxCell>
        <mxCell id="T6Oe0h_qcBVAluAfO9DY-13" value="&lt;font color=&quot;#f2f2f2&quot;&gt;Contacter le garage&lt;/font&gt;" style="rounded=1;whiteSpace=wrap;html=1;fillColor=#262526;" parent="1" vertex="1">
          <mxGeometry x="-1121.25" y="1060" width="142" height="71" as="geometry" />
        </mxCell>
        <mxCell id="T6Oe0h_qcBVAluAfO9DY-32" value="" style="group;dropTarget=0;pointerEvents=0;" parent="1" vertex="1">
          <mxGeometry x="-1720" y="710" width="640" height="45" as="geometry" />
        </mxCell>
        <mxCell id="T6Oe0h_qcBVAluAfO9DY-33" value="&lt;font style=&quot;font-size: 20px;&quot;&gt;Diagramme de cas d&#39;utilisation (Use Case Diagram) :&lt;/font&gt;" style="points=[[0.233,0.967,0]];html=1;overflow=block;blockSpacing=1;whiteSpace=wrap;fontSize=16;fontColor=default;align=center;spacingLeft=7;spacingRight=7;spacingTop=2;spacing=3;strokeOpacity=0;fillOpacity=0;rounded=1;absoluteArcSize=1;arcSize=12;fillColor=#ffffff;strokeWidth=1.5;lucidId=E0v4OU6HhNtv;" parent="T6Oe0h_qcBVAluAfO9DY-32" vertex="1">
          <mxGeometry width="640" height="31" as="geometry" />
        </mxCell>
        <UserObject label="Ilan Tervil&amp;nbsp; |  %date{mmmm d, yyyy}%" placeholders="1" id="T6Oe0h_qcBVAluAfO9DY-34">
          <mxCell style="html=1;overflow=block;blockSpacing=1;whiteSpace=wrap;fontSize=11.5;fontColor=#a9afb8;align=center;spacingLeft=7;spacingRight=7;spacingTop=2;spacing=3;strokeOpacity=0;fillOpacity=0;rounded=1;absoluteArcSize=1;arcSize=12;fillColor=#ffffff;strokeWidth=1.5;lucidId=E0v46zYpy2dv;" parent="T6Oe0h_qcBVAluAfO9DY-32" vertex="1">
            <mxGeometry y="31" width="640" height="14" as="geometry" />
          </mxCell>
        </UserObject>
        <mxCell id="T6Oe0h_qcBVAluAfO9DY-35" value="" style="html=1;jettySize=18;whiteSpace=wrap;fontSize=13;fontFamily=Helvetica;strokeColor=#a9afb8;strokeOpacity=100;strokeWidth=1.5;rounded=0;startArrow=none;endArrow=none;exitX=0.233;exitY=0.967;exitPerimeter=0;lucidId=E0v4RzTpeAeE;" parent="T6Oe0h_qcBVAluAfO9DY-32" source="T6Oe0h_qcBVAluAfO9DY-33" edge="1">
          <mxGeometry width="100" height="100" relative="1" as="geometry">
            <Array as="points" />
            <mxPoint x="494" y="30" as="targetPoint" />
          </mxGeometry>
        </mxCell>
        <mxCell id="T6Oe0h_qcBVAluAfO9DY-39" value="Alternative&lt;br&gt;&lt;br&gt;&amp;nbsp; [Si produit disponible, stock suffisant]&lt;br&gt;&lt;br&gt;&lt;br&gt;&lt;br&gt;&amp;nbsp; [Sinon]" style="html=1;blockSpacing=1;whiteSpace=wrap;shape=mxgraph.sysml.package2;xSize=90;overflow=fill;fontSize=16.7;fontColor=#333333;align=left;spacing=0;strokeColor=#000000;strokeOpacity=100;fillOpacity=100;rounded=1;absoluteArcSize=1;arcSize=9;fillColor=#D9777F;strokeWidth=2.3;lucidId=YBw4MqrhlL.r;" parent="1" vertex="1">
          <mxGeometry x="-1891.25" y="-104" width="1440" height="180" as="geometry" />
        </mxCell>
        <mxCell id="T6Oe0h_qcBVAluAfO9DY-40" value="Alternative&lt;br&gt;&lt;br&gt;&lt;span data-lucid-content=&quot;{&amp;quot;t&amp;quot;:&amp;quot;[Si recherche trouvé]&amp;quot;,&amp;quot;m&amp;quot;:[{&amp;quot;s&amp;quot;:0,&amp;quot;n&amp;quot;:&amp;quot;a&amp;quot;,&amp;quot;v&amp;quot;:&amp;quot;center&amp;quot;},{&amp;quot;s&amp;quot;:0,&amp;quot;n&amp;quot;:&amp;quot;s&amp;quot;,&amp;quot;v&amp;quot;:22.22222222222222,&amp;quot;e&amp;quot;:21},{&amp;quot;s&amp;quot;:0,&amp;quot;n&amp;quot;:&amp;quot;c&amp;quot;,&amp;quot;v&amp;quot;:&amp;quot;333333ff&amp;quot;,&amp;quot;e&amp;quot;:21}]}&quot; data-lucid-type=&quot;application/vnd.lucid.text&quot;&gt;&lt;/span&gt;&amp;nbsp; [Si recherche trouvé]&lt;br&gt;&lt;br&gt;&lt;br&gt;&amp;nbsp; [Sinon]" style="html=1;blockSpacing=1;whiteSpace=wrap;shape=mxgraph.sysml.package2;xSize=90;overflow=fill;fontSize=16.7;align=left;spacing=0;strokeOpacity=100;fillOpacity=100;rounded=1;absoluteArcSize=1;arcSize=9;strokeWidth=2.3;lucidId=-Cw4YTbApHRs;fillColor=#D9777F;strokeColor=default;" parent="1" vertex="1">
          <mxGeometry x="-1891.25" y="-479" width="960" height="165" as="geometry" />
        </mxCell>
        <mxCell id="T6Oe0h_qcBVAluAfO9DY-41" value="Alternative&lt;br&gt;&lt;br&gt;&amp;nbsp; [Si formulaire complet (nom, email &amp;amp; note)]&lt;br&gt;&lt;br&gt;&lt;br&gt;&amp;nbsp; [Sinon]" style="html=1;blockSpacing=1;whiteSpace=wrap;shape=mxgraph.sysml.package2;xSize=90;overflow=fill;fontSize=16.7;fontColor=#333333;align=left;spacing=0;strokeColor=#000000;strokeOpacity=100;fillOpacity=100;rounded=1;absoluteArcSize=1;arcSize=9;fillColor=#D9777F;strokeWidth=2.3;lucidId=VZw4ieArGQU4;" parent="1" vertex="1">
          <mxGeometry x="-1891.25" y="130" width="660" height="160" as="geometry" />
        </mxCell>
        <UserObject label="&lt;div style=&quot;display: flex; justify-content: flex-start; text-align: left; align-items: baseline; line-height: 1.25; margin-top: -2px; font-size: 20px;&quot;&gt;&lt;span style=&quot;color: rgb(0, 0, 0);&quot;&gt;&lt;font style=&quot;font-size: 20px;&quot;&gt;Diagramme de séquence (Sequence Diagram) :&lt;br&gt;&lt;/font&gt;&lt;/span&gt;&lt;/div&gt;&lt;div style=&quot;display: flex; justify-content: center; text-align: center; align-items: baseline; line-height: 1.25; margin-left: 7px; margin-right: 7px; margin-top: -2px; font-size: 20px;&quot;&gt;&lt;span style=&quot;color: rgb(169, 175, 184);&quot;&gt;&lt;font style=&quot;font-size: 20px;&quot;&gt;Ilan Tervil&amp;nbsp; |  %date{mmmm d, yyyy}%&lt;/font&gt;&lt;/span&gt;&lt;/div&gt;" placeholders="1" id="T6Oe0h_qcBVAluAfO9DY-42">
          <mxCell style="html=1;overflow=block;blockSpacing=1;whiteSpace=wrap;fontSize=13;align=left;spacing=3.8;verticalAlign=top;strokeColor=none;fillOpacity=0;fillColor=#ffffff;strokeWidth=0;lucidId=O.v4v.V5B6~r;" parent="1" vertex="1">
            <mxGeometry x="-1809.25" y="-990" width="494" height="46" as="geometry" />
          </mxCell>
        </UserObject>
        <mxCell id="T6Oe0h_qcBVAluAfO9DY-43" value="&lt;font style=&quot;font-size: 30px;&quot;&gt;Application&lt;/font&gt;" style="html=1;overflow=block;blockSpacing=1;whiteSpace=wrap;rounded=1;absoluteArcSize=1;arcSize=24;container=1;pointerEvents=0;collapsible=0;recursiveResize=0;fontSize=13;align=center;spacing=0;strokeColor=#5e5e5e;strokeOpacity=100;fillOpacity=100;fillColor=#D92332;strokeWidth=2.3;lucidId=O.v4sSC.tmU.;" parent="1" vertex="1">
          <mxGeometry x="-1682.25" y="-868" width="982.25" height="120" as="geometry" />
        </mxCell>
        <mxCell id="T6Oe0h_qcBVAluAfO9DY-48" value="" style="html=1;overflow=block;blockSpacing=1;whiteSpace=wrap;fontSize=13;spacing=0;strokeColor=#5e5e5e;strokeOpacity=100;rounded=1;absoluteArcSize=1;arcSize=9;rotation=-270;dashed=1;fixDash=1;strokeWidth=2.3;lucidId=O.v4MvfRuMcS;" parent="1" vertex="1">
          <mxGeometry x="-2158.25" y="-192" width="1113" height="2" as="geometry" />
        </mxCell>
        <mxCell id="T6Oe0h_qcBVAluAfO9DY-49" value="" style="html=1;overflow=block;blockSpacing=1;whiteSpace=wrap;fontSize=13;spacing=0;strokeColor=#5e5e5e;strokeOpacity=100;rounded=1;absoluteArcSize=1;arcSize=9;rotation=-270;dashed=1;fixDash=1;strokeWidth=2.3;lucidId=O.v4vlAI9Znb;" parent="1" vertex="1">
          <mxGeometry x="-1844.25" y="-192" width="1113" height="2" as="geometry" />
        </mxCell>
        <mxCell id="T6Oe0h_qcBVAluAfO9DY-50" value="" style="html=1;overflow=block;blockSpacing=1;whiteSpace=wrap;fontSize=13;spacing=0;strokeColor=#5e5e5e;strokeOpacity=100;rounded=1;absoluteArcSize=1;arcSize=9;rotation=-270;dashed=1;fixDash=1;strokeWidth=2.3;lucidId=O.v4o5tknFJy;" parent="1" vertex="1">
          <mxGeometry x="-1547.25" y="-192" width="1113" height="2" as="geometry" />
        </mxCell>
        <mxCell id="T6Oe0h_qcBVAluAfO9DY-51" value="" style="html=1;overflow=block;blockSpacing=1;whiteSpace=wrap;fontSize=13;spacing=0;strokeColor=#5e5e5e;strokeOpacity=100;rounded=1;absoluteArcSize=1;arcSize=9;rotation=-270;dashed=1;fixDash=1;strokeWidth=2.3;lucidId=O.v4iaXeCw92;" parent="1" vertex="1">
          <mxGeometry x="-1281.25" y="-192" width="1113" height="2" as="geometry" />
        </mxCell>
        <mxCell id="T6Oe0h_qcBVAluAfO9DY-52" value="" style="html=1;overflow=block;blockSpacing=1;whiteSpace=wrap;fontSize=13;spacing=0;strokeColor=#5E5E5E;strokeOpacity=100;fillOpacity=100;rounded=1;absoluteArcSize=1;arcSize=9;fillColor=#262526;strokeWidth=2.3;lucidId=O.v4kSHFRUKb;" parent="1" vertex="1">
          <mxGeometry x="-1617.25" y="-695" width="30" height="495" as="geometry" />
        </mxCell>
        <mxCell id="T6Oe0h_qcBVAluAfO9DY-53" value="" style="html=1;overflow=block;blockSpacing=1;whiteSpace=wrap;fontSize=13;spacing=0;strokeColor=#5e5e5e;strokeOpacity=100;rounded=1;absoluteArcSize=1;arcSize=9;rotation=-270;dashed=1;fixDash=1;strokeWidth=2.3;lucidId=O.v4rNS-CwyW;" parent="1" vertex="1">
          <mxGeometry x="-2229.25" y="-314" width="839" height="2" as="geometry" />
        </mxCell>
        <mxCell id="T6Oe0h_qcBVAluAfO9DY-54" value="" style="html=1;overflow=block;blockSpacing=1;whiteSpace=wrap;fontSize=13;spacing=0;strokeColor=#5e5e5e;strokeOpacity=100;fillOpacity=100;rounded=1;absoluteArcSize=1;arcSize=9;fillColor=#262526;strokeWidth=2.3;lucidId=O.v4dh4rE484;" parent="1" vertex="1">
          <mxGeometry x="-1005.25" y="-665" width="30" height="465" as="geometry" />
        </mxCell>
        <mxCell id="T6Oe0h_qcBVAluAfO9DY-55" value="" style="html=1;jettySize=18;whiteSpace=wrap;fontSize=13;strokeColor=#5E5E5E;dashed=1;fixDash=1;strokeWidth=1.5;rounded=1;arcSize=12;edgeStyle=orthogonalEdgeStyle;startArrow=none;endArrow=block;endFill=1;exitX=-0.037;exitY=0.531;exitPerimeter=0;entryX=0.384;entryY=0;entryPerimeter=0;lucidId=O.v4Oke_IXJc;" parent="1" source="T6Oe0h_qcBVAluAfO9DY-54" target="T6Oe0h_qcBVAluAfO9DY-53" edge="1">
          <mxGeometry width="100" height="100" relative="1" as="geometry">
            <Array as="points" />
          </mxGeometry>
        </mxCell>
        <mxCell id="T6Oe0h_qcBVAluAfO9DY-56" value="Envoi résultats" style="text;html=1;resizable=0;labelBackgroundColor=default;align=center;verticalAlign=middle;fontStyle=1;fontColor=#333333;fontSize=13.3;" parent="T6Oe0h_qcBVAluAfO9DY-55" vertex="1">
          <mxGeometry relative="1" as="geometry">
            <mxPoint as="offset" />
          </mxGeometry>
        </mxCell>
        <mxCell id="T6Oe0h_qcBVAluAfO9DY-57" value="" style="html=1;jettySize=18;whiteSpace=wrap;fontSize=13;strokeColor=#5E5E5E;dashed=1;fixDash=1;strokeWidth=1.5;rounded=1;arcSize=12;edgeStyle=orthogonalEdgeStyle;startArrow=none;endArrow=block;endFill=1;exitX=-0.037;exitY=0.66;exitPerimeter=0;entryX=0.455;entryY=0;entryPerimeter=0;lucidId=O.v4aioplXV.;" parent="1" source="T6Oe0h_qcBVAluAfO9DY-54" target="T6Oe0h_qcBVAluAfO9DY-53" edge="1">
          <mxGeometry width="100" height="100" relative="1" as="geometry">
            <Array as="points" />
          </mxGeometry>
        </mxCell>
        <mxCell id="T6Oe0h_qcBVAluAfO9DY-58" value="Envoi message, aucune résultat trouvé" style="text;html=1;resizable=0;labelBackgroundColor=default;align=center;verticalAlign=middle;fontStyle=1;fontColor=#333333;fontSize=13.3;" parent="T6Oe0h_qcBVAluAfO9DY-57" vertex="1">
          <mxGeometry relative="1" as="geometry">
            <mxPoint as="offset" />
          </mxGeometry>
        </mxCell>
        <mxCell id="T6Oe0h_qcBVAluAfO9DY-59" value="" style="html=1;jettySize=18;whiteSpace=wrap;fontSize=13;strokeColor=#5E5E5E;strokeWidth=1.5;rounded=1;arcSize=12;edgeStyle=orthogonalEdgeStyle;startArrow=block;startFill=1;endArrow=none;exitX=-0.037;exitY=0.831;exitPerimeter=0;entryX=0.55;entryY=0;entryPerimeter=0;lucidId=O.v4pDnxjaKH;" parent="1" source="T6Oe0h_qcBVAluAfO9DY-54" target="T6Oe0h_qcBVAluAfO9DY-53" edge="1">
          <mxGeometry width="100" height="100" relative="1" as="geometry">
            <Array as="points" />
          </mxGeometry>
        </mxCell>
        <mxCell id="T6Oe0h_qcBVAluAfO9DY-60" value="Clique sur bouton Panier dans la voiture sélectionné" style="text;html=1;resizable=0;labelBackgroundColor=default;align=center;verticalAlign=middle;fontStyle=1;fontColor=#333333;fontSize=11.7;" parent="T6Oe0h_qcBVAluAfO9DY-59" vertex="1">
          <mxGeometry relative="1" as="geometry">
            <mxPoint as="offset" />
          </mxGeometry>
        </mxCell>
        <mxCell id="T6Oe0h_qcBVAluAfO9DY-61" value="" style="html=1;overflow=block;blockSpacing=1;whiteSpace=wrap;fontSize=13;spacing=0;strokeColor=#5e5e5e;strokeOpacity=100;fillOpacity=100;rounded=1;absoluteArcSize=1;arcSize=9;fillColor=#262526;strokeWidth=2.3;lucidId=O.v4rTKuvIvl;" parent="1" vertex="1">
          <mxGeometry x="-739.25" y="-284" width="30" height="375" as="geometry" />
        </mxCell>
        <mxCell id="T6Oe0h_qcBVAluAfO9DY-62" value="" style="html=1;overflow=block;blockSpacing=1;whiteSpace=wrap;fontSize=13;spacing=0;strokeColor=#5e5e5e;strokeOpacity=100;rounded=1;absoluteArcSize=1;arcSize=9;rotation=-270;dashed=1;fixDash=1;strokeWidth=2.3;lucidId=O.v4-R9pIBdy;" parent="1" vertex="1">
          <mxGeometry x="-1067.75" y="-184.5" width="1097" height="2" as="geometry" />
        </mxCell>
        <mxCell id="T6Oe0h_qcBVAluAfO9DY-63" value="" style="html=1;jettySize=18;whiteSpace=wrap;fontSize=13;strokeColor=#5E5E5E;strokeWidth=1.5;rounded=1;arcSize=12;edgeStyle=orthogonalEdgeStyle;startArrow=none;endArrow=block;endFill=1;exitX=1.037;exitY=0.874;exitPerimeter=0;entryX=-0.037;entryY=0.068;entryPerimeter=0;lucidId=O.v41hrQaDPC;" parent="1" source="T6Oe0h_qcBVAluAfO9DY-54" target="T6Oe0h_qcBVAluAfO9DY-61" edge="1">
          <mxGeometry width="100" height="100" relative="1" as="geometry">
            <Array as="points" />
          </mxGeometry>
        </mxCell>
        <mxCell id="T6Oe0h_qcBVAluAfO9DY-64" value="Envoi ID voiture" style="text;html=1;resizable=0;labelBackgroundColor=default;align=center;verticalAlign=middle;fontStyle=1;fontColor=#333333;fontSize=13.3;" parent="T6Oe0h_qcBVAluAfO9DY-63" vertex="1">
          <mxGeometry relative="1" as="geometry">
            <mxPoint as="offset" />
          </mxGeometry>
        </mxCell>
        <mxCell id="T6Oe0h_qcBVAluAfO9DY-65" value="" style="html=1;jettySize=18;whiteSpace=wrap;fontSize=13;strokeColor=#5E5E5E;dashed=1;fixDash=1;strokeWidth=1.5;rounded=1;arcSize=12;edgeStyle=orthogonalEdgeStyle;startArrow=none;endArrow=block;endFill=1;exitX=-0.037;exitY=0.258;exitPerimeter=0;entryX=0.659;entryY=0;entryPerimeter=0;lucidId=O.v4EKcI3OWY;" parent="1" source="T6Oe0h_qcBVAluAfO9DY-61" target="T6Oe0h_qcBVAluAfO9DY-53" edge="1">
          <mxGeometry width="100" height="100" relative="1" as="geometry">
            <Array as="points" />
          </mxGeometry>
        </mxCell>
        <mxCell id="T6Oe0h_qcBVAluAfO9DY-66" value="Envoi formulaire de panier ID voiture" style="text;html=1;resizable=0;labelBackgroundColor=default;align=center;verticalAlign=middle;fontStyle=1;fontColor=#333333;fontSize=13.3;" parent="T6Oe0h_qcBVAluAfO9DY-65" vertex="1">
          <mxGeometry relative="1" as="geometry">
            <mxPoint as="offset" />
          </mxGeometry>
        </mxCell>
        <mxCell id="T6Oe0h_qcBVAluAfO9DY-67" value="" style="html=1;jettySize=18;whiteSpace=wrap;fontSize=13;strokeColor=#5E5E5E;strokeWidth=1.5;rounded=1;arcSize=12;edgeStyle=orthogonalEdgeStyle;startArrow=block;startFill=1;endArrow=none;exitX=-0.037;exitY=0.392;exitPerimeter=0;entryX=0.719;entryY=0;entryPerimeter=0;lucidId=Y.v4IYNe0~j0;" parent="1" source="T6Oe0h_qcBVAluAfO9DY-61" target="T6Oe0h_qcBVAluAfO9DY-53" edge="1">
          <mxGeometry width="100" height="100" relative="1" as="geometry">
            <Array as="points" />
          </mxGeometry>
        </mxCell>
        <mxCell id="T6Oe0h_qcBVAluAfO9DY-68" value="Cliquer sur le bouton" style="text;html=1;resizable=0;labelBackgroundColor=default;align=center;verticalAlign=middle;fontStyle=1;fontColor=#333333;fontSize=13.3;" parent="T6Oe0h_qcBVAluAfO9DY-67" vertex="1">
          <mxGeometry relative="1" as="geometry">
            <mxPoint as="offset" />
          </mxGeometry>
        </mxCell>
        <mxCell id="T6Oe0h_qcBVAluAfO9DY-69" value="" style="html=1;overflow=block;blockSpacing=1;whiteSpace=wrap;fontSize=13;spacing=0;strokeColor=#5e5e5e;strokeOpacity=100;fillOpacity=100;rounded=1;absoluteArcSize=1;arcSize=9;fillColor=#262526;strokeWidth=2.3;lucidId=Mmw4W55uL8Zy;" parent="1" vertex="1">
          <mxGeometry x="-534.25" y="-119" width="30" height="105" as="geometry" />
        </mxCell>
        <mxCell id="T6Oe0h_qcBVAluAfO9DY-70" value="" style="html=1;jettySize=18;whiteSpace=wrap;fontSize=13;strokeColor=#5E5E5E;strokeWidth=1.5;rounded=1;arcSize=12;edgeStyle=orthogonalEdgeStyle;startArrow=block;startFill=1;endArrow=none;lucidId=wtw4ixZKij.u;" parent="1" edge="1">
          <mxGeometry width="100" height="100" relative="1" as="geometry">
            <Array as="points" />
            <mxPoint x="-1617.25" y="-674" as="sourcePoint" />
            <mxPoint x="-1807.25" y="-674" as="targetPoint" />
          </mxGeometry>
        </mxCell>
        <mxCell id="T6Oe0h_qcBVAluAfO9DY-71" value="Navigation" style="text;html=1;resizable=0;labelBackgroundColor=default;align=center;verticalAlign=middle;fontStyle=1;fontColor=#333333;fontSize=13.3;" parent="T6Oe0h_qcBVAluAfO9DY-70" vertex="1">
          <mxGeometry relative="1" as="geometry">
            <mxPoint as="offset" />
          </mxGeometry>
        </mxCell>
        <mxCell id="T6Oe0h_qcBVAluAfO9DY-72" value="" style="html=1;jettySize=18;whiteSpace=wrap;fontSize=13;strokeColor=#5E5E5E;dashed=1;fixDash=1;strokeWidth=1.5;rounded=1;arcSize=12;edgeStyle=orthogonalEdgeStyle;startArrow=none;endArrow=block;endFill=1;lucidId=wtw47-qaW_Ss;" parent="1" edge="1">
          <mxGeometry width="100" height="100" relative="1" as="geometry">
            <Array as="points" />
            <mxPoint x="-1617.25" y="-631" as="sourcePoint" />
            <mxPoint x="-1807.25" y="-631" as="targetPoint" />
          </mxGeometry>
        </mxCell>
        <mxCell id="T6Oe0h_qcBVAluAfO9DY-73" value="Information" style="text;html=1;resizable=0;labelBackgroundColor=default;align=center;verticalAlign=middle;fontStyle=1;fontColor=#333333;fontSize=13.3;" parent="T6Oe0h_qcBVAluAfO9DY-72" vertex="1">
          <mxGeometry relative="1" as="geometry">
            <mxPoint as="offset" />
          </mxGeometry>
        </mxCell>
        <mxCell id="T6Oe0h_qcBVAluAfO9DY-74" value="" style="html=1;jettySize=18;whiteSpace=wrap;fontSize=13;strokeColor=#5E5E5E;strokeWidth=1.5;rounded=1;arcSize=12;edgeStyle=orthogonalEdgeStyle;startArrow=block;startFill=1;endArrow=none;lucidId=wtw4JS.fzAdc;" parent="1" edge="1">
          <mxGeometry width="100" height="100" relative="1" as="geometry">
            <Array as="points" />
            <mxPoint x="-1617.25" y="-584" as="sourcePoint" />
            <mxPoint x="-1807.25" y="-584" as="targetPoint" />
          </mxGeometry>
        </mxCell>
        <mxCell id="T6Oe0h_qcBVAluAfO9DY-75" value="Parcourir Liste des produits" style="text;html=1;resizable=0;labelBackgroundColor=default;align=center;verticalAlign=middle;fontStyle=1;fontColor=#333333;fontSize=13.3;" parent="T6Oe0h_qcBVAluAfO9DY-74" vertex="1">
          <mxGeometry relative="1" as="geometry">
            <mxPoint as="offset" />
          </mxGeometry>
        </mxCell>
        <mxCell id="T6Oe0h_qcBVAluAfO9DY-76" value="" style="html=1;jettySize=18;whiteSpace=wrap;fontSize=13;strokeColor=#5E5E5E;strokeWidth=1.5;rounded=1;arcSize=12;edgeStyle=orthogonalEdgeStyle;startArrow=none;endArrow=block;endFill=1;lucidId=-tw4ck6UbxF0;" parent="1" edge="1">
          <mxGeometry width="100" height="100" relative="1" as="geometry">
            <Array as="points" />
            <mxPoint x="-1586.25" y="-599" as="sourcePoint" />
            <mxPoint x="-1007.25" y="-599" as="targetPoint" />
          </mxGeometry>
        </mxCell>
        <mxCell id="T6Oe0h_qcBVAluAfO9DY-77" value="Connexion à la liste des produits" style="text;html=1;resizable=0;labelBackgroundColor=default;align=center;verticalAlign=middle;fontStyle=1;fontColor=#333333;fontSize=13.3;" parent="T6Oe0h_qcBVAluAfO9DY-76" vertex="1">
          <mxGeometry x="-0.13838840344588887" relative="1" as="geometry">
            <mxPoint as="offset" />
          </mxGeometry>
        </mxCell>
        <mxCell id="T6Oe0h_qcBVAluAfO9DY-78" value="" style="html=1;jettySize=18;whiteSpace=wrap;fontSize=13;strokeColor=#5E5E5E;dashed=1;fixDash=1;strokeWidth=1.5;rounded=1;arcSize=12;edgeStyle=orthogonalEdgeStyle;startArrow=none;endArrow=block;endFill=1;lucidId=-tw4iL17KhE3;" parent="1" edge="1">
          <mxGeometry width="100" height="100" relative="1" as="geometry">
            <Array as="points" />
            <mxPoint x="-1007.25" y="-531" as="sourcePoint" />
            <mxPoint x="-1808.25" y="-531" as="targetPoint" />
          </mxGeometry>
        </mxCell>
        <mxCell id="T6Oe0h_qcBVAluAfO9DY-79" value="            Montrer la liste" style="text;html=1;resizable=0;labelBackgroundColor=default;align=center;verticalAlign=middle;fontStyle=1;fontColor=#333333;fontSize=13.3;" parent="T6Oe0h_qcBVAluAfO9DY-78" vertex="1">
          <mxGeometry relative="1" as="geometry">
            <mxPoint as="offset" />
          </mxGeometry>
        </mxCell>
        <mxCell id="T6Oe0h_qcBVAluAfO9DY-80" value="" style="html=1;jettySize=18;whiteSpace=wrap;fontSize=13;strokeColor=#5E5E5E;strokeWidth=1.5;rounded=1;arcSize=12;edgeStyle=orthogonalEdgeStyle;startArrow=block;startFill=1;endArrow=none;exitX=-0.037;exitY=0.36;exitPerimeter=0;lucidId=uuw4k.lDiz5w;" parent="1" source="T6Oe0h_qcBVAluAfO9DY-54" edge="1">
          <mxGeometry width="100" height="100" relative="1" as="geometry">
            <Array as="points" />
            <mxPoint x="-1801.25" y="-498" as="targetPoint" />
          </mxGeometry>
        </mxCell>
        <mxCell id="T6Oe0h_qcBVAluAfO9DY-81" value="                  Filtrer les résultats" style="text;html=1;resizable=0;labelBackgroundColor=default;align=center;verticalAlign=middle;fontStyle=1;fontColor=#333333;fontSize=13.3;" parent="T6Oe0h_qcBVAluAfO9DY-80" vertex="1">
          <mxGeometry relative="1" as="geometry">
            <mxPoint as="offset" />
          </mxGeometry>
        </mxCell>
        <mxCell id="T6Oe0h_qcBVAluAfO9DY-82" value="" style="html=1;jettySize=18;whiteSpace=wrap;fontSize=13;strokeColor=#5E5E5E;strokeWidth=1.5;rounded=1;arcSize=12;edgeStyle=orthogonalEdgeStyle;startArrow=none;endArrow=block;endFill=1;exitX=1.037;exitY=0.596;exitPerimeter=0;entryX=-0.037;entryY=0.558;entryPerimeter=0;lucidId=oww4UqA21~jD;" parent="1" source="T6Oe0h_qcBVAluAfO9DY-61" target="T6Oe0h_qcBVAluAfO9DY-69" edge="1">
          <mxGeometry width="100" height="100" relative="1" as="geometry">
            <Array as="points" />
          </mxGeometry>
        </mxCell>
        <mxCell id="T6Oe0h_qcBVAluAfO9DY-83" value="Envoi de message" style="text;html=1;resizable=0;labelBackgroundColor=default;align=center;verticalAlign=middle;fontStyle=1;fontColor=#333333;fontSize=13.3;" parent="T6Oe0h_qcBVAluAfO9DY-82" vertex="1">
          <mxGeometry relative="1" as="geometry">
            <mxPoint as="offset" />
          </mxGeometry>
        </mxCell>
        <mxCell id="T6Oe0h_qcBVAluAfO9DY-84" value="" style="html=1;jettySize=18;whiteSpace=wrap;fontSize=13;strokeColor=#5E5E5E;dashed=1;fixDash=1;strokeWidth=1.5;rounded=1;arcSize=12;edgeStyle=orthogonalEdgeStyle;startArrow=none;endArrow=block;endFill=1;exitX=-0.037;exitY=0.658;exitPerimeter=0;entryX=0.838;entryY=0;entryPerimeter=0;lucidId=JAw4WZks1poF;" parent="1" source="T6Oe0h_qcBVAluAfO9DY-61" target="T6Oe0h_qcBVAluAfO9DY-53" edge="1">
          <mxGeometry width="100" height="100" relative="1" as="geometry">
            <Array as="points" />
          </mxGeometry>
        </mxCell>
        <mxCell id="T6Oe0h_qcBVAluAfO9DY-85" value="Produit ajouter au panier" style="text;html=1;resizable=0;labelBackgroundColor=default;align=center;verticalAlign=middle;fontStyle=1;fontColor=#333333;fontSize=13.3;" parent="T6Oe0h_qcBVAluAfO9DY-84" vertex="1">
          <mxGeometry relative="1" as="geometry">
            <mxPoint as="offset" />
          </mxGeometry>
        </mxCell>
        <mxCell id="T6Oe0h_qcBVAluAfO9DY-86" value="" style="html=1;jettySize=18;whiteSpace=wrap;fontSize=13;strokeColor=#5E5E5E;strokeWidth=1.5;rounded=1;arcSize=12;edgeStyle=orthogonalEdgeStyle;startArrow=none;endArrow=block;endFill=1;exitX=-0.037;exitY=0.834;exitPerimeter=0;entryX=0.917;entryY=0;entryPerimeter=0;lucidId=vGw4GbxFIj__;" parent="1" source="T6Oe0h_qcBVAluAfO9DY-61" target="T6Oe0h_qcBVAluAfO9DY-53" edge="1">
          <mxGeometry width="100" height="100" relative="1" as="geometry">
            <Array as="points" />
          </mxGeometry>
        </mxCell>
        <mxCell id="T6Oe0h_qcBVAluAfO9DY-87" value="Produit en rupture de stock pas d&#39;envoi possible" style="text;html=1;resizable=0;labelBackgroundColor=default;align=center;verticalAlign=middle;fontStyle=1;fontColor=#333333;fontSize=13.3;" parent="T6Oe0h_qcBVAluAfO9DY-86" vertex="1">
          <mxGeometry relative="1" as="geometry">
            <mxPoint as="offset" />
          </mxGeometry>
        </mxCell>
        <mxCell id="T6Oe0h_qcBVAluAfO9DY-88" value="" style="html=1;overflow=block;blockSpacing=1;whiteSpace=wrap;fontSize=13;spacing=0;strokeColor=#5E5E5E;strokeOpacity=100;fillOpacity=100;rounded=1;absoluteArcSize=1;arcSize=9;fillColor=#262526;strokeWidth=2.3;lucidId=QYw4wGIv5B0Q;" parent="1" vertex="1">
          <mxGeometry x="-1303.25" y="91" width="30" height="244" as="geometry" />
        </mxCell>
        <mxCell id="T6Oe0h_qcBVAluAfO9DY-89" value="" style="html=1;jettySize=18;whiteSpace=wrap;fontSize=13;strokeColor=#5E5E5E;strokeWidth=1.5;rounded=1;arcSize=12;edgeStyle=orthogonalEdgeStyle;startArrow=none;endArrow=block;endFill=1;exitX=-0.037;exitY=0.054;exitPerimeter=0;lucidId=.0w4R24Ej4a0;" parent="1" source="T6Oe0h_qcBVAluAfO9DY-88" edge="1">
          <mxGeometry width="100" height="100" relative="1" as="geometry">
            <Array as="points" />
            <mxPoint x="-1801.25" y="104" as="targetPoint" />
          </mxGeometry>
        </mxCell>
        <mxCell id="T6Oe0h_qcBVAluAfO9DY-90" value="Ecrire un témoignage" style="text;html=1;resizable=0;labelBackgroundColor=default;align=center;verticalAlign=middle;fontStyle=1;fontColor=#333333;fontSize=13.3;" parent="T6Oe0h_qcBVAluAfO9DY-89" vertex="1">
          <mxGeometry x="-0.12589107819207734" relative="1" as="geometry">
            <mxPoint as="offset" />
          </mxGeometry>
        </mxCell>
        <mxCell id="T6Oe0h_qcBVAluAfO9DY-91" value="" style="html=1;jettySize=18;whiteSpace=wrap;fontSize=13;strokeColor=#5E5E5E;strokeWidth=1.5;rounded=1;arcSize=12;edgeStyle=orthogonalEdgeStyle;startArrow=none;endArrow=block;endFill=1;exitX=-0.037;exitY=0.432;exitPerimeter=0;lucidId=H-w4pIvz6j4w;" parent="1" source="T6Oe0h_qcBVAluAfO9DY-88" edge="1">
          <mxGeometry width="100" height="100" relative="1" as="geometry">
            <Array as="points" />
            <mxPoint x="-1801.25" y="196" as="targetPoint" />
          </mxGeometry>
        </mxCell>
        <mxCell id="T6Oe0h_qcBVAluAfO9DY-92" value="Témoignage approuvé" style="text;html=1;resizable=0;labelBackgroundColor=default;align=center;verticalAlign=middle;fontStyle=1;fontColor=#333333;fontSize=13.3;" parent="T6Oe0h_qcBVAluAfO9DY-91" vertex="1">
          <mxGeometry x="-0.17115187078003236" relative="1" as="geometry">
            <mxPoint as="offset" />
          </mxGeometry>
        </mxCell>
        <mxCell id="T6Oe0h_qcBVAluAfO9DY-93" value="" style="html=1;jettySize=18;whiteSpace=wrap;fontSize=13;strokeColor=#5E5E5E;strokeWidth=1.5;rounded=1;arcSize=12;edgeStyle=orthogonalEdgeStyle;startArrow=block;startFill=1;endArrow=none;exitX=-0.037;exitY=0.629;exitPerimeter=0;lucidId=5-w4I5FU1FGH;" parent="1" source="T6Oe0h_qcBVAluAfO9DY-88" edge="1">
          <mxGeometry width="100" height="100" relative="1" as="geometry">
            <Array as="points" />
            <mxPoint x="-1801.25" y="244" as="targetPoint" />
          </mxGeometry>
        </mxCell>
        <mxCell id="T6Oe0h_qcBVAluAfO9DY-94" value="Témoignage non approuvé" style="text;html=1;resizable=0;labelBackgroundColor=default;align=center;verticalAlign=middle;fontStyle=1;fontColor=#333333;fontSize=13.3;" parent="T6Oe0h_qcBVAluAfO9DY-93" vertex="1">
          <mxGeometry x="-0.23149965724821142" relative="1" as="geometry">
            <mxPoint as="offset" />
          </mxGeometry>
        </mxCell>
        <mxCell id="T6Oe0h_qcBVAluAfO9DY-95" value="" style="html=1;overflow=block;blockSpacing=1;whiteSpace=wrap;fontSize=13;spacing=0;strokeColor=#5e5e5e;strokeOpacity=100;rounded=1;absoluteArcSize=1;arcSize=9;rotation=-270;dashed=1;fixDash=1;strokeWidth=2.3;lucidId=uFx4CHYQh-c2;" parent="1" vertex="1">
          <mxGeometry x="-1952.25" y="221" width="285" height="2" as="geometry" />
        </mxCell>
        <mxCell id="T6Oe0h_qcBVAluAfO9DY-96" value="" style="html=1;overflow=block;blockSpacing=1;whiteSpace=wrap;fontSize=13;spacing=0;strokeColor=#5e5e5e;strokeOpacity=100;fillOpacity=100;rounded=1;absoluteArcSize=1;arcSize=9;fillColor=#262526;strokeWidth=2.3;lucidId=cGx4ARh1Pq9b;" parent="1" vertex="1">
          <mxGeometry x="-534.25" y="125" width="30" height="105" as="geometry" />
        </mxCell>
        <mxCell id="T6Oe0h_qcBVAluAfO9DY-97" value="" style="html=1;jettySize=18;whiteSpace=wrap;fontSize=13;strokeColor=#5E5E5E;strokeWidth=1.5;rounded=1;arcSize=12;edgeStyle=orthogonalEdgeStyle;startArrow=none;endArrow=block;endFill=1;exitX=1.037;exitY=0.33;exitPerimeter=0;entryX=-0.037;entryY=0.444;entryPerimeter=0;lucidId=91w4l3fRSnOy;" parent="1" source="T6Oe0h_qcBVAluAfO9DY-88" target="T6Oe0h_qcBVAluAfO9DY-96" edge="1">
          <mxGeometry width="100" height="100" relative="1" as="geometry">
            <Array as="points" />
          </mxGeometry>
        </mxCell>
        <mxCell id="T6Oe0h_qcBVAluAfO9DY-98" value="Rectification de produit" style="text;html=1;resizable=0;labelBackgroundColor=default;align=center;verticalAlign=middle;fontStyle=1;fontColor=#333333;fontSize=13.3;" parent="T6Oe0h_qcBVAluAfO9DY-97" vertex="1">
          <mxGeometry relative="1" as="geometry">
            <mxPoint as="offset" />
          </mxGeometry>
        </mxCell>
        <mxCell id="T6Oe0h_qcBVAluAfO9DY-100" value="Utilisateur (ROLE)" style="shape=umlActor;verticalLabelPosition=bottom;verticalAlign=top;html=1;outlineConnect=0;" parent="1" vertex="1">
          <mxGeometry x="-1839.25" y="-870" width="59" height="118" as="geometry" />
        </mxCell>
        <UserObject label="&lt;div style=&quot;display: flex; justify-content: flex-start; text-align: left; align-items: baseline; line-height: 1.25; margin-top: -2px;&quot;&gt;&lt;span style=&quot;color: rgb(0, 0, 0);&quot;&gt;&lt;font style=&quot;font-size: 20px;&quot;&gt;Diagramme de classes (Class Diagram)&lt;/font&gt;&lt;br&gt;&lt;/span&gt;&lt;/div&gt;&lt;div style=&quot;display: flex; justify-content: center; text-align: center; align-items: baseline; font-size: 0; line-height: 1.25;margin-left: 7px;margin-right: 7px;margin-top: 2px;margin-top: -2px;&quot;&gt;&lt;span&gt;&lt;span style=&quot;font-size:11.5px;color:#a9afb8;&quot;&gt;Ilan Tervil&amp;nbsp; |  %date{mmmm d, yyyy}%&lt;/span&gt;&lt;/span&gt;&lt;/div&gt;" placeholders="1" id="T6Oe0h_qcBVAluAfO9DY-205">
          <mxCell style="html=1;overflow=block;blockSpacing=1;whiteSpace=wrap;fontSize=13;align=left;spacing=3.8;verticalAlign=top;strokeColor=none;fillOpacity=0;fillColor=#ffffff;strokeWidth=0;lucidId=5Hx4jj2AYFTZ;" parent="1" vertex="1">
            <mxGeometry x="-1692.87" y="2020" width="543" height="62" as="geometry" />
          </mxCell>
        </UserObject>
        <mxCell id="T6Oe0h_qcBVAluAfO9DY-233" style="edgeStyle=orthogonalEdgeStyle;rounded=0;orthogonalLoop=1;jettySize=auto;html=1;entryX=0.493;entryY=0.982;entryDx=0;entryDy=0;entryPerimeter=0;" parent="1" edge="1">
          <mxGeometry relative="1" as="geometry">
            <Array as="points">
              <mxPoint x="-1232.87" y="2350" />
              <mxPoint x="-1232.87" y="2350" />
            </Array>
            <mxPoint x="-1232.8439999999996" y="2307.8559999999998" as="targetPoint" />
          </mxGeometry>
        </mxCell>
        <mxCell id="T6Oe0h_qcBVAluAfO9DY-234" value="Assigne &amp;gt;" style="edgeLabel;html=1;align=center;verticalAlign=middle;resizable=0;points=[];" parent="T6Oe0h_qcBVAluAfO9DY-233" vertex="1" connectable="0">
          <mxGeometry x="0.2216" relative="1" as="geometry">
            <mxPoint x="2" y="8" as="offset" />
          </mxGeometry>
        </mxCell>
        <mxCell id="T6Oe0h_qcBVAluAfO9DY-235" value="1" style="edgeLabel;html=1;align=center;verticalAlign=middle;resizable=0;points=[];" parent="T6Oe0h_qcBVAluAfO9DY-233" vertex="1" connectable="0">
          <mxGeometry x="-0.7147" y="-1" relative="1" as="geometry">
            <mxPoint as="offset" />
          </mxGeometry>
        </mxCell>
        <mxCell id="T6Oe0h_qcBVAluAfO9DY-236" value="1..*" style="edgeLabel;html=1;align=center;verticalAlign=middle;resizable=0;points=[];" parent="T6Oe0h_qcBVAluAfO9DY-233" vertex="1" connectable="0">
          <mxGeometry x="0.617" relative="1" as="geometry">
            <mxPoint as="offset" />
          </mxGeometry>
        </mxCell>
        <mxCell id="T6Oe0h_qcBVAluAfO9DY-276" value="&lt;font style=&quot;font-size: 18px;&quot;&gt;Coupons&lt;/font&gt;" style="swimlane;childLayout=stackLayout;horizontal=1;startSize=50;horizontalStack=0;rounded=1;fontSize=14;fontStyle=0;strokeWidth=2;resizeParent=0;resizeLast=1;shadow=0;dashed=0;align=center;arcSize=4;whiteSpace=wrap;html=1;fillColor=#D92332;fontColor=#ffffff;strokeColor=#6F0000;gradientColor=none;swimlaneFillColor=#D9777F;" parent="1" vertex="1">
          <mxGeometry x="-1999.27" y="2151.91" width="320" height="258" as="geometry" />
        </mxCell>
        <mxCell id="T6Oe0h_qcBVAluAfO9DY-277" value="&lt;font style=&quot;font-size: 16px;&quot;&gt;&lt;div style=&quot;&quot;&gt;&lt;font style=&quot;font-size: 16px;&quot;&gt;id : int NOT NULL,&lt;/font&gt;&lt;/div&gt;&lt;div style=&quot;&quot;&gt;&lt;span style=&quot;background-color: initial;&quot;&gt;coupons_types_id : int NOT NULL&lt;/span&gt;&lt;/div&gt;&lt;div style=&quot;&quot;&gt;&lt;span style=&quot;&quot;&gt;code : varchar(10) COLLATE NOT NULL&lt;/span&gt;&lt;/div&gt;&lt;div style=&quot;&quot;&gt;&lt;span style=&quot;&quot;&gt;description : longtext COLLATE NOT NULL&lt;/span&gt;&lt;/div&gt;&lt;div style=&quot;&quot;&gt;&lt;span style=&quot;&quot;&gt;discount : int NOT NULL&lt;/span&gt;&lt;/div&gt;&lt;div style=&quot;&quot;&gt;&lt;span style=&quot;&quot;&gt;max_usage : int NOT NULL&lt;/span&gt;&lt;/div&gt;&lt;div style=&quot;&quot;&gt;&lt;span style=&quot;&quot;&gt;validity : datetime NOT NULL&lt;/span&gt;&lt;/div&gt;&lt;div style=&quot;&quot;&gt;&lt;span style=&quot;&quot;&gt;is_valid : tinyint(1) NOT NULL&lt;/span&gt;&lt;/div&gt;&lt;div style=&quot;&quot;&gt;created_at : datetime NOT NULL&lt;br&gt;&lt;/div&gt;&lt;span style=&quot;&quot;&gt;&amp;nbsp; &amp;nbsp; &amp;nbsp;&amp;nbsp;&lt;/span&gt;&lt;br&gt;&lt;/font&gt;" style="align=left;strokeColor=none;fillColor=none;spacingLeft=4;fontSize=12;verticalAlign=top;resizable=0;rotatable=0;part=1;html=1;" parent="T6Oe0h_qcBVAluAfO9DY-276" vertex="1">
          <mxGeometry y="50" width="320" height="208" as="geometry" />
        </mxCell>
        <mxCell id="T6Oe0h_qcBVAluAfO9DY-287" value="&lt;font style=&quot;font-size: 18px;&quot;&gt;coupons_types&lt;/font&gt;" style="swimlane;childLayout=stackLayout;horizontal=1;startSize=50;horizontalStack=0;rounded=1;fontSize=14;fontStyle=0;strokeWidth=2;resizeParent=0;resizeLast=1;shadow=0;dashed=0;align=center;arcSize=4;whiteSpace=wrap;html=1;fillColor=#D92332;fontColor=#FFFFFF;strokeColor=#6F0000;swimlaneFillColor=#D9777F;labelBackgroundColor=none;labelBorderColor=none;swimlaneLine=1;" parent="1" vertex="1">
          <mxGeometry x="-2000.02" y="2443.91" width="320" height="108" as="geometry" />
        </mxCell>
        <mxCell id="T6Oe0h_qcBVAluAfO9DY-288" value="&lt;div style=&quot;font-size: 17px;&quot;&gt;&lt;span style=&quot;font-size: 13px;&quot;&gt;&amp;nbsp;&lt;/span&gt;&lt;font style=&quot;font-size: 17px;&quot;&gt;&amp;nbsp;id : int NOT NULL,&lt;/font&gt;&lt;/div&gt;&lt;div style=&quot;font-size: 17px;&quot;&gt;&lt;font style=&quot;font-size: 17px;&quot;&gt;&amp;nbsp; name : varchar(50) COLLATE&amp;nbsp;&lt;/font&gt;&lt;/div&gt;" style="align=left;strokeColor=none;fillColor=none;spacingLeft=4;fontSize=12;verticalAlign=top;resizable=0;rotatable=0;part=1;html=1;" parent="T6Oe0h_qcBVAluAfO9DY-287" vertex="1">
          <mxGeometry y="50" width="320" height="58" as="geometry" />
        </mxCell>
        <mxCell id="T6Oe0h_qcBVAluAfO9DY-289" value="&lt;font style=&quot;font-size: 18px;&quot;&gt;Users&lt;/font&gt;" style="swimlane;childLayout=stackLayout;horizontal=1;startSize=50;horizontalStack=0;rounded=1;fontSize=14;fontStyle=0;strokeWidth=2;resizeParent=0;resizeLast=1;shadow=0;dashed=0;align=center;arcSize=4;whiteSpace=wrap;html=1;fillColor=#D92332;fontColor=#ffffff;strokeColor=#6F0000;swimlaneFillColor=#D9777F;" parent="1" vertex="1">
          <mxGeometry x="-1999.27" y="2589.91" width="320" height="360" as="geometry" />
        </mxCell>
        <mxCell id="T6Oe0h_qcBVAluAfO9DY-290" value="&lt;div style=&quot;font-size: 14px;&quot;&gt;&lt;font style=&quot;font-size: 14px;&quot;&gt;id : int NOT NULL&lt;/font&gt;&lt;/div&gt;&lt;div style=&quot;font-size: 14px;&quot;&gt;&lt;span style=&quot;background-color: initial;&quot;&gt;&lt;font style=&quot;font-size: 14px;&quot;&gt;email : varchar(180) COLLATE NOT NULL&lt;/font&gt;&lt;/span&gt;&lt;/div&gt;&lt;div style=&quot;font-size: 14px;&quot;&gt;&lt;font style=&quot;font-size: 14px;&quot;&gt;roles : json NOT NULL&lt;/font&gt;&lt;/div&gt;&lt;div style=&quot;font-size: 14px;&quot;&gt;&lt;font style=&quot;font-size: 14px;&quot;&gt;password : varchar(255) COLLATE NOT NULL&lt;/font&gt;&lt;/div&gt;&lt;div style=&quot;font-size: 14px;&quot;&gt;&lt;font style=&quot;font-size: 14px;&quot;&gt;lastname : varchar(100) COLLATE NOT NULL&lt;/font&gt;&lt;/div&gt;&lt;div style=&quot;font-size: 14px;&quot;&gt;&lt;font style=&quot;font-size: 14px;&quot;&gt;firstname : varchar(100) COLLATE NOT NULL&lt;/font&gt;&lt;/div&gt;&lt;div style=&quot;font-size: 14px;&quot;&gt;&lt;font style=&quot;font-size: 14px;&quot;&gt;address : varchar(255) COLLATE NOT NULL&lt;/font&gt;&lt;/div&gt;&lt;div style=&quot;font-size: 14px;&quot;&gt;&lt;font style=&quot;font-size: 14px;&quot;&gt;zipcode : varchar(5) COLLATE NOT NULL&lt;/font&gt;&lt;/div&gt;&lt;div style=&quot;font-size: 14px;&quot;&gt;&lt;font style=&quot;font-size: 14px;&quot;&gt;city :varchar(150) COLLATE NOT NULL&lt;/font&gt;&lt;/div&gt;&lt;div style=&quot;font-size: 14px;&quot;&gt;&lt;font style=&quot;font-size: 14px;&quot;&gt;created_at : datetime NOT NULL&amp;nbsp;&lt;/font&gt;&lt;/div&gt;&lt;div style=&quot;font-size: 14px;&quot;&gt;&lt;font style=&quot;font-size: 14px;&quot;&gt;DEFAULT CURRENT_TIMESTAMP COMMENT&lt;/font&gt;&lt;/div&gt;&lt;div style=&quot;font-size: 14px;&quot;&gt;&lt;font style=&quot;font-size: 14px;&quot;&gt;is_verified : tinyint(1) NOT NULL&lt;/font&gt;&lt;/div&gt;&lt;div style=&quot;font-size: 14px;&quot;&gt;&lt;font style=&quot;font-size: 14px;&quot;&gt;reset_token : varchar(100) COLLATE&amp;nbsp;NOT NULL&lt;/font&gt;&lt;/div&gt;" style="align=left;strokeColor=none;fillColor=none;spacingLeft=4;fontSize=12;verticalAlign=top;resizable=0;rotatable=0;part=1;html=1;" parent="T6Oe0h_qcBVAluAfO9DY-289" vertex="1">
          <mxGeometry y="50" width="320" height="310" as="geometry" />
        </mxCell>
        <mxCell id="T6Oe0h_qcBVAluAfO9DY-319" style="edgeStyle=orthogonalEdgeStyle;rounded=0;orthogonalLoop=1;jettySize=auto;html=1;entryX=0.25;entryY=0;entryDx=0;entryDy=0;" parent="1" source="T6Oe0h_qcBVAluAfO9DY-291" target="T6Oe0h_qcBVAluAfO9DY-303" edge="1">
          <mxGeometry relative="1" as="geometry">
            <Array as="points">
              <mxPoint x="-1457.27" y="2109.91" />
              <mxPoint x="-813.27" y="2109.91" />
            </Array>
          </mxGeometry>
        </mxCell>
        <mxCell id="T6Oe0h_qcBVAluAfO9DY-291" value="&lt;font style=&quot;font-size: 18px;&quot;&gt;Orders&lt;/font&gt;" style="swimlane;childLayout=stackLayout;horizontal=1;startSize=50;horizontalStack=0;rounded=1;fontSize=14;fontStyle=0;strokeWidth=2;resizeParent=0;resizeLast=1;shadow=0;dashed=0;align=center;arcSize=4;whiteSpace=wrap;html=1;fillColor=#D92332;fontColor=#ffffff;strokeColor=#6F0000;swimlaneFillColor=#D9777F;" parent="1" vertex="1">
          <mxGeometry x="-1595.27" y="2151.91" width="276" height="270" as="geometry" />
        </mxCell>
        <mxCell id="T6Oe0h_qcBVAluAfO9DY-292" value="&lt;div style=&quot;font-size: 13px;&quot;&gt;&lt;font style=&quot;font-size: 13px;&quot;&gt;id : int NOT NULL&lt;/font&gt;&lt;/div&gt;&lt;div style=&quot;font-size: 13px;&quot;&gt;&lt;font style=&quot;font-size: 13px;&quot;&gt;coupons_id : int DEFAULT NULL&lt;/font&gt;&lt;/div&gt;&lt;div style=&quot;font-size: 13px;&quot;&gt;&lt;font style=&quot;font-size: 13px;&quot;&gt;users_id : int NOT NULL&lt;/font&gt;&lt;/div&gt;&lt;div style=&quot;font-size: 13px;&quot;&gt;&lt;font style=&quot;font-size: 13px;&quot;&gt;reference : varchar(20) COLLATE NOT NULL&lt;/font&gt;&lt;/div&gt;&lt;div style=&quot;font-size: 13px;&quot;&gt;&lt;font style=&quot;font-size: 13px;&quot;&gt;created_at : datetime NOT NULL DEFAULT&amp;nbsp;&lt;/font&gt;&lt;/div&gt;&lt;div style=&quot;font-size: 13px;&quot;&gt;&lt;font style=&quot;font-size: 13px;&quot;&gt;CURRENT_TIMESTAMP COMMENT&amp;nbsp;&lt;/font&gt;&lt;/div&gt;" style="align=left;strokeColor=none;fillColor=none;spacingLeft=4;fontSize=12;verticalAlign=top;resizable=0;rotatable=0;part=1;html=1;" parent="T6Oe0h_qcBVAluAfO9DY-291" vertex="1">
          <mxGeometry y="50" width="276" height="220" as="geometry" />
        </mxCell>
        <mxCell id="T6Oe0h_qcBVAluAfO9DY-293" value="&lt;font style=&quot;font-size: 18px;&quot;&gt;Images&lt;/font&gt;" style="swimlane;childLayout=stackLayout;horizontal=1;startSize=50;horizontalStack=0;rounded=1;fontSize=14;fontStyle=0;strokeWidth=2;resizeParent=0;resizeLast=1;shadow=0;dashed=0;align=center;arcSize=4;whiteSpace=wrap;html=1;fillColor=#D92332;fontColor=#ffffff;strokeColor=#6F0000;swimlaneFillColor=#D9777F;" parent="1" vertex="1">
          <mxGeometry x="-1595.27" y="2439.91" width="276" height="180" as="geometry" />
        </mxCell>
        <mxCell id="T6Oe0h_qcBVAluAfO9DY-294" value="&lt;div style=&quot;font-size: 14px;&quot;&gt;&lt;font style=&quot;font-size: 14px;&quot;&gt;id : int NOT NULL&lt;/font&gt;&lt;/div&gt;&lt;div style=&quot;font-size: 14px;&quot;&gt;&lt;font style=&quot;font-size: 14px;&quot;&gt;products_id : int NOT NULL&lt;/font&gt;&lt;/div&gt;&lt;div style=&quot;font-size: 14px;&quot;&gt;&lt;font style=&quot;font-size: 14px;&quot;&gt;name : varchar(255) COLLATE NOT NULL&lt;/font&gt;&lt;/div&gt;" style="align=left;strokeColor=none;fillColor=none;spacingLeft=4;fontSize=12;verticalAlign=top;resizable=0;rotatable=0;part=1;html=1;" parent="T6Oe0h_qcBVAluAfO9DY-293" vertex="1">
          <mxGeometry y="50" width="276" height="130" as="geometry" />
        </mxCell>
        <mxCell id="T6Oe0h_qcBVAluAfO9DY-297" value="&lt;font style=&quot;font-size: 18px;&quot;&gt;horaires&lt;/font&gt;" style="swimlane;childLayout=stackLayout;horizontal=1;startSize=50;horizontalStack=0;rounded=1;fontSize=14;fontStyle=0;strokeWidth=2;resizeParent=0;resizeLast=1;shadow=0;dashed=0;align=center;arcSize=4;whiteSpace=wrap;html=1;fillColor=#D92332;fontColor=#ffffff;strokeColor=#6F0000;swimlaneFillColor=#D9777F;" parent="1" vertex="1">
          <mxGeometry x="-1595.27" y="2669.91" width="310" height="180" as="geometry">
            <mxRectangle x="114" y="2200" width="110" height="50" as="alternateBounds" />
          </mxGeometry>
        </mxCell>
        <mxCell id="T6Oe0h_qcBVAluAfO9DY-298" value="&lt;div style=&quot;font-size: 14px;&quot;&gt;&lt;font style=&quot;font-size: 14px;&quot;&gt;id : int NOT NULL&lt;/font&gt;&lt;/div&gt;&lt;div style=&quot;font-size: 14px;&quot;&gt;&lt;font style=&quot;font-size: 14px;&quot;&gt;jour : varchar(20) COLLATE NOT NULL&lt;/font&gt;&lt;/div&gt;&lt;div style=&quot;font-size: 14px;&quot;&gt;&lt;font style=&quot;font-size: 14px;&quot;&gt;heure_debut : varchar(50) COLLATE NOT NULL&lt;/font&gt;&lt;/div&gt;&lt;div style=&quot;font-size: 14px;&quot;&gt;&lt;font style=&quot;font-size: 14px;&quot;&gt;heure_fin : varchar(50) COLLATE NOT NULL&lt;/font&gt;&lt;/div&gt;" style="align=left;strokeColor=none;fillColor=none;spacingLeft=4;fontSize=12;verticalAlign=top;resizable=0;rotatable=0;part=1;html=1;" parent="T6Oe0h_qcBVAluAfO9DY-297" vertex="1">
          <mxGeometry y="50" width="310" height="130" as="geometry" />
        </mxCell>
        <mxCell id="sg-jxr4v8bj3WIG_Sv-r-28" value="" style="ellipse;whiteSpace=wrap;html=1;aspect=fixed;fillColor=#DEDEDE;" vertex="1" parent="1">
          <mxGeometry x="-1350" y="1134.75" width="625.25" height="625.25" as="geometry" />
        </mxCell>
        <mxCell id="T6Oe0h_qcBVAluAfO9DY-299" value="&lt;font style=&quot;font-size: 18px;&quot;&gt;garage_info&lt;/font&gt;" style="swimlane;childLayout=stackLayout;horizontal=1;startSize=50;horizontalStack=0;rounded=1;fontSize=14;fontStyle=0;strokeWidth=2;resizeParent=0;resizeLast=1;shadow=0;dashed=0;align=center;arcSize=4;whiteSpace=wrap;html=1;fillColor=#D92332;fontColor=#ffffff;strokeColor=#6F0000;swimlaneFillColor=#D9777F;" parent="1" vertex="1">
          <mxGeometry x="-1269.27" y="2669.91" width="310" height="180" as="geometry" />
        </mxCell>
        <mxCell id="T6Oe0h_qcBVAluAfO9DY-300" value="&lt;div style=&quot;font-size: 13px;&quot;&gt;&lt;font style=&quot;font-size: 13px;&quot;&gt;id : int NOT NULL&lt;/font&gt;&lt;/div&gt;&lt;div style=&quot;font-size: 13px;&quot;&gt;&lt;font style=&quot;font-size: 13px;&quot;&gt;address : varchar(100) COLLATE NOT NULL&lt;/font&gt;&lt;/div&gt;&lt;div style=&quot;font-size: 13px;&quot;&gt;&lt;font style=&quot;font-size: 13px;&quot;&gt;phone_number : varchar(20) COLLATE NOT NULL&lt;/font&gt;&lt;/div&gt;&lt;div style=&quot;font-size: 13px;&quot;&gt;&lt;font style=&quot;font-size: 13px;&quot;&gt;email : varchar(100) COLLATE NOT NULL&lt;/font&gt;&lt;/div&gt;" style="align=left;strokeColor=none;fillColor=none;spacingLeft=4;fontSize=12;verticalAlign=top;resizable=0;rotatable=0;part=1;html=1;" parent="T6Oe0h_qcBVAluAfO9DY-299" vertex="1">
          <mxGeometry y="50" width="310" height="130" as="geometry" />
        </mxCell>
        <mxCell id="T6Oe0h_qcBVAluAfO9DY-301" value="&lt;font style=&quot;font-size: 18px;&quot;&gt;products&lt;/font&gt;" style="swimlane;childLayout=stackLayout;horizontal=1;startSize=50;horizontalStack=0;rounded=1;fontSize=14;fontStyle=0;strokeWidth=2;resizeParent=0;resizeLast=1;shadow=0;dashed=0;align=center;arcSize=4;whiteSpace=wrap;html=1;fillColor=#D92332;fontColor=#ffffff;strokeColor=#6F0000;swimlaneFillColor=#D9777F;" parent="1" vertex="1">
          <mxGeometry x="-1259.27" y="2151.91" width="276" height="278" as="geometry" />
        </mxCell>
        <mxCell id="T6Oe0h_qcBVAluAfO9DY-302" value="&lt;div style=&quot;font-size: 13px;&quot;&gt;&lt;font style=&quot;font-size: 13px;&quot;&gt;id : int NOT NULL&lt;/font&gt;&lt;/div&gt;&lt;div style=&quot;font-size: 13px;&quot;&gt;&lt;font style=&quot;font-size: 13px;&quot;&gt;categories_id : int NOT NULL&lt;/font&gt;&lt;/div&gt;&lt;div style=&quot;font-size: 13px;&quot;&gt;&lt;font style=&quot;font-size: 13px;&quot;&gt;name : varchar(255) COLLATE NOT NULL&lt;/font&gt;&lt;/div&gt;&lt;div style=&quot;font-size: 13px;&quot;&gt;&lt;font style=&quot;font-size: 13px;&quot;&gt;description : longtext COLLATE NOT NULL&lt;/font&gt;&lt;/div&gt;&lt;div style=&quot;font-size: 13px;&quot;&gt;&lt;font style=&quot;font-size: 13px;&quot;&gt;price : int NOT NULL&lt;/font&gt;&lt;/div&gt;&lt;div style=&quot;font-size: 13px;&quot;&gt;&lt;font style=&quot;font-size: 13px;&quot;&gt;stock : int NOT NULL&lt;/font&gt;&lt;/div&gt;&lt;div style=&quot;font-size: 13px;&quot;&gt;&lt;font style=&quot;font-size: 13px;&quot;&gt;created_at : datetime NOT NULL DEFAULT&amp;nbsp;&lt;/font&gt;&lt;/div&gt;&lt;div style=&quot;font-size: 13px;&quot;&gt;&lt;font style=&quot;font-size: 13px;&quot;&gt;CURRENT_TIMESTAMP COMMENT&lt;/font&gt;&lt;/div&gt;&lt;div style=&quot;font-size: 13px;&quot;&gt;&lt;font style=&quot;font-size: 13px;&quot;&gt;slug : varchar(255) COLLATE NOT NULL&lt;/font&gt;&lt;/div&gt;&lt;div style=&quot;font-size: 13px;&quot;&gt;&lt;font style=&quot;font-size: 13px;&quot;&gt;years : int NOT NULL&lt;/font&gt;&lt;/div&gt;&lt;div style=&quot;font-size: 13px;&quot;&gt;&lt;font style=&quot;font-size: 13px;&quot;&gt;modeles : varchar(50) COLLATE NOT NULL&lt;/font&gt;&lt;/div&gt;&lt;div style=&quot;font-size: 13px;&quot;&gt;&lt;font style=&quot;font-size: 13px;&quot;&gt;kilometrage : int NOT NULL&lt;/font&gt;&lt;/div&gt;" style="align=left;strokeColor=none;fillColor=none;spacingLeft=4;fontSize=12;verticalAlign=top;resizable=0;rotatable=0;part=1;html=1;" parent="T6Oe0h_qcBVAluAfO9DY-301" vertex="1">
          <mxGeometry y="50" width="276" height="228" as="geometry" />
        </mxCell>
        <mxCell id="T6Oe0h_qcBVAluAfO9DY-303" value="&lt;font style=&quot;font-size: 18px;&quot;&gt;orders_details&lt;/font&gt;" style="swimlane;childLayout=stackLayout;horizontal=1;startSize=50;horizontalStack=0;rounded=1;fontSize=14;fontStyle=0;strokeWidth=2;resizeParent=0;resizeLast=1;shadow=0;dashed=0;align=center;arcSize=4;whiteSpace=wrap;html=1;fillColor=#D92332;fontColor=#ffffff;strokeColor=#6F0000;gradientColor=none;swimlaneFillColor=#D9777F;" parent="1" vertex="1">
          <mxGeometry x="-882.27" y="2151.91" width="276" height="158" as="geometry" />
        </mxCell>
        <mxCell id="T6Oe0h_qcBVAluAfO9DY-304" value="&lt;div style=&quot;font-size: 17px;&quot;&gt;&lt;font style=&quot;font-size: 17px;&quot;&gt;orders_id : int NOT NULL&lt;/font&gt;&lt;/div&gt;&lt;div style=&quot;font-size: 17px;&quot;&gt;&lt;font style=&quot;font-size: 17px;&quot;&gt;products_id : int NOT NULL&lt;/font&gt;&lt;/div&gt;&lt;div style=&quot;font-size: 17px;&quot;&gt;&lt;font style=&quot;font-size: 17px;&quot;&gt;quantity : int NOT NULL&lt;/font&gt;&lt;/div&gt;&lt;div style=&quot;font-size: 17px;&quot;&gt;&lt;font style=&quot;font-size: 17px;&quot;&gt;price : int NOT NULL&lt;/font&gt;&lt;/div&gt;" style="align=left;strokeColor=none;fillColor=none;spacingLeft=4;fontSize=12;verticalAlign=top;resizable=0;rotatable=0;part=1;html=1;" parent="T6Oe0h_qcBVAluAfO9DY-303" vertex="1">
          <mxGeometry y="50" width="276" height="108" as="geometry" />
        </mxCell>
        <mxCell id="T6Oe0h_qcBVAluAfO9DY-305" value="&lt;font style=&quot;font-size: 18px;&quot;&gt;categories&lt;/font&gt;" style="swimlane;childLayout=stackLayout;horizontal=1;startSize=50;horizontalStack=0;rounded=1;fontSize=14;fontStyle=0;strokeWidth=2;resizeParent=0;resizeLast=1;shadow=0;dashed=0;align=center;arcSize=4;whiteSpace=wrap;html=1;fillColor=#D92332;fontColor=#ffffff;strokeColor=#6F0000;swimlaneFillColor=#D9777F;" parent="1" vertex="1">
          <mxGeometry x="-882.27" y="2339.91" width="276" height="270" as="geometry" />
        </mxCell>
        <mxCell id="T6Oe0h_qcBVAluAfO9DY-306" value="&lt;div style=&quot;font-size: 14px;&quot;&gt;&lt;font style=&quot;font-size: 14px;&quot;&gt;id : int NOT NULL&lt;/font&gt;&lt;/div&gt;&lt;div style=&quot;font-size: 14px;&quot;&gt;&lt;font style=&quot;font-size: 14px;&quot;&gt;parent_id : int DEFAULT NULL&lt;/font&gt;&lt;/div&gt;&lt;div style=&quot;font-size: 14px;&quot;&gt;&lt;font style=&quot;font-size: 14px;&quot;&gt;name : varchar(100) COLLATE NOT NULL&lt;/font&gt;&lt;/div&gt;&lt;div style=&quot;font-size: 14px;&quot;&gt;&lt;font style=&quot;font-size: 14px;&quot;&gt;slug : varchar(255) COLLATE NOT NULL&lt;/font&gt;&lt;/div&gt;&lt;div style=&quot;font-size: 14px;&quot;&gt;&lt;font style=&quot;font-size: 14px;&quot;&gt;category_order : int NOT NULL&lt;/font&gt;&lt;/div&gt;" style="align=left;strokeColor=none;fillColor=none;spacingLeft=4;fontSize=12;verticalAlign=top;resizable=0;rotatable=0;part=1;html=1;" parent="T6Oe0h_qcBVAluAfO9DY-305" vertex="1">
          <mxGeometry y="50" width="276" height="220" as="geometry" />
        </mxCell>
        <mxCell id="T6Oe0h_qcBVAluAfO9DY-314" style="edgeStyle=orthogonalEdgeStyle;rounded=0;orthogonalLoop=1;jettySize=auto;html=1;exitX=1;exitY=0.25;exitDx=0;exitDy=0;entryX=0.41;entryY=0.002;entryDx=0;entryDy=0;entryPerimeter=0;" parent="1" source="T6Oe0h_qcBVAluAfO9DY-290" target="T6Oe0h_qcBVAluAfO9DY-291" edge="1">
          <mxGeometry relative="1" as="geometry">
            <mxPoint x="-1639.27" y="2259.91" as="targetPoint" />
          </mxGeometry>
        </mxCell>
        <mxCell id="T6Oe0h_qcBVAluAfO9DY-317" style="edgeStyle=orthogonalEdgeStyle;rounded=0;orthogonalLoop=1;jettySize=auto;html=1;entryX=0;entryY=0.25;entryDx=0;entryDy=0;exitX=0;exitY=0.25;exitDx=0;exitDy=0;" parent="1" source="T6Oe0h_qcBVAluAfO9DY-288" target="T6Oe0h_qcBVAluAfO9DY-277" edge="1">
          <mxGeometry relative="1" as="geometry" />
        </mxCell>
        <mxCell id="T6Oe0h_qcBVAluAfO9DY-318" style="edgeStyle=orthogonalEdgeStyle;rounded=0;orthogonalLoop=1;jettySize=auto;html=1;entryX=0.002;entryY=0.14;entryDx=0;entryDy=0;entryPerimeter=0;" parent="1" source="T6Oe0h_qcBVAluAfO9DY-294" target="T6Oe0h_qcBVAluAfO9DY-302" edge="1">
          <mxGeometry relative="1" as="geometry" />
        </mxCell>
        <mxCell id="T6Oe0h_qcBVAluAfO9DY-338" value="&amp;lt; Utilise" style="edgeLabel;html=1;align=center;verticalAlign=middle;resizable=0;points=[];rotation=0;" parent="T6Oe0h_qcBVAluAfO9DY-318" vertex="1" connectable="0">
          <mxGeometry x="0.2761" y="1" relative="1" as="geometry">
            <mxPoint x="3" y="28" as="offset" />
          </mxGeometry>
        </mxCell>
        <mxCell id="T6Oe0h_qcBVAluAfO9DY-320" style="edgeStyle=orthogonalEdgeStyle;rounded=0;orthogonalLoop=1;jettySize=auto;html=1;entryX=1.002;entryY=0.334;entryDx=0;entryDy=0;entryPerimeter=0;" parent="1" source="T6Oe0h_qcBVAluAfO9DY-292" target="T6Oe0h_qcBVAluAfO9DY-277" edge="1">
          <mxGeometry relative="1" as="geometry">
            <Array as="points">
              <mxPoint x="-1637.27" y="2270.91" />
            </Array>
          </mxGeometry>
        </mxCell>
        <mxCell id="T6Oe0h_qcBVAluAfO9DY-321" style="edgeStyle=orthogonalEdgeStyle;rounded=0;orthogonalLoop=1;jettySize=auto;html=1;entryX=-0.005;entryY=0.443;entryDx=0;entryDy=0;entryPerimeter=0;" parent="1" source="T6Oe0h_qcBVAluAfO9DY-302" target="T6Oe0h_qcBVAluAfO9DY-304" edge="1">
          <mxGeometry relative="1" as="geometry" />
        </mxCell>
        <mxCell id="T6Oe0h_qcBVAluAfO9DY-322" style="edgeStyle=orthogonalEdgeStyle;rounded=0;orthogonalLoop=1;jettySize=auto;html=1;exitX=1;exitY=0.75;exitDx=0;exitDy=0;entryX=-0.008;entryY=0.166;entryDx=0;entryDy=0;entryPerimeter=0;" parent="1" source="T6Oe0h_qcBVAluAfO9DY-302" target="T6Oe0h_qcBVAluAfO9DY-306" edge="1">
          <mxGeometry relative="1" as="geometry" />
        </mxCell>
        <mxCell id="T6Oe0h_qcBVAluAfO9DY-323" style="edgeStyle=orthogonalEdgeStyle;rounded=0;orthogonalLoop=1;jettySize=auto;html=1;exitX=1;exitY=0.75;exitDx=0;exitDy=0;entryX=0.683;entryY=0.992;entryDx=0;entryDy=0;entryPerimeter=0;" parent="1" source="T6Oe0h_qcBVAluAfO9DY-290" target="T6Oe0h_qcBVAluAfO9DY-298" edge="1">
          <mxGeometry relative="1" as="geometry" />
        </mxCell>
        <mxCell id="T6Oe0h_qcBVAluAfO9DY-328" value="&lt;span style=&quot;color: rgb(0, 0, 0); font-family: Helvetica; font-size: 11px; font-style: normal; font-variant-ligatures: normal; font-variant-caps: normal; font-weight: 400; letter-spacing: normal; orphans: 2; text-align: center; text-indent: 0px; text-transform: none; widows: 2; word-spacing: 0px; -webkit-text-stroke-width: 0px; background-color: rgb(255, 255, 255); text-decoration-thickness: initial; text-decoration-style: initial; text-decoration-color: initial; float: none; display: inline !important;&quot;&gt;Défini &amp;gt; if (Admin =1)&lt;/span&gt;" style="edgeLabel;html=1;align=center;verticalAlign=middle;resizable=0;points=[];" parent="T6Oe0h_qcBVAluAfO9DY-323" vertex="1" connectable="0">
          <mxGeometry x="-0.244" y="-2" relative="1" as="geometry">
            <mxPoint y="-1" as="offset" />
          </mxGeometry>
        </mxCell>
        <mxCell id="T6Oe0h_qcBVAluAfO9DY-324" style="edgeStyle=orthogonalEdgeStyle;rounded=0;orthogonalLoop=1;jettySize=auto;html=1;entryX=0.75;entryY=1;entryDx=0;entryDy=0;" parent="1" source="T6Oe0h_qcBVAluAfO9DY-290" target="T6Oe0h_qcBVAluAfO9DY-300" edge="1">
          <mxGeometry relative="1" as="geometry">
            <Array as="points">
              <mxPoint x="-1036.27" y="2919.91" />
            </Array>
          </mxGeometry>
        </mxCell>
        <mxCell id="T6Oe0h_qcBVAluAfO9DY-329" value="Peut modifier (if admin =1)" style="edgeLabel;html=1;align=center;verticalAlign=middle;resizable=0;points=[];" parent="T6Oe0h_qcBVAluAfO9DY-324" vertex="1" connectable="0">
          <mxGeometry x="-0.5326" y="1" relative="1" as="geometry">
            <mxPoint y="2" as="offset" />
          </mxGeometry>
        </mxCell>
        <mxCell id="T6Oe0h_qcBVAluAfO9DY-326" value="&lt;font color=&quot;#f2f2f2&quot;&gt;Créer/supprimer les fiches voitures/services&lt;/font&gt;" style="rounded=1;whiteSpace=wrap;html=1;fillColor=#262526;" parent="1" vertex="1">
          <mxGeometry x="-1067.75" y="1640" width="138" height="69" as="geometry" />
        </mxCell>
        <mxCell id="T6Oe0h_qcBVAluAfO9DY-332" value="1..*" style="edgeLabel;html=1;align=center;verticalAlign=middle;resizable=0;points=[];" parent="1" vertex="1" connectable="0">
          <mxGeometry x="-1789.27" y="2931.9100000000003" as="geometry">
            <mxPoint x="135" y="-58" as="offset" />
          </mxGeometry>
        </mxCell>
        <mxCell id="T6Oe0h_qcBVAluAfO9DY-334" value="0..1" style="edgeLabel;html=1;align=center;verticalAlign=middle;resizable=0;points=[];" parent="1" vertex="1" connectable="0">
          <mxGeometry x="-1565.2666666666664" y="2679.91" as="geometry">
            <mxPoint x="530" y="210" as="offset" />
          </mxGeometry>
        </mxCell>
        <mxCell id="T6Oe0h_qcBVAluAfO9DY-335" value="1" style="edgeLabel;html=1;align=center;verticalAlign=middle;resizable=0;points=[];fontStyle=1" parent="1" vertex="1" connectable="0">
          <mxGeometry x="-1769.2735883463642" y="2849.912939263959" as="geometry">
            <mxPoint x="365" y="22" as="offset" />
          </mxGeometry>
        </mxCell>
        <mxCell id="T6Oe0h_qcBVAluAfO9DY-336" style="edgeStyle=orthogonalEdgeStyle;rounded=0;orthogonalLoop=1;jettySize=auto;html=1;exitX=1;exitY=0;exitDx=0;exitDy=0;entryX=0.419;entryY=1.003;entryDx=0;entryDy=0;entryPerimeter=0;" parent="1" source="T6Oe0h_qcBVAluAfO9DY-290" target="T6Oe0h_qcBVAluAfO9DY-302" edge="1">
          <mxGeometry relative="1" as="geometry">
            <Array as="points">
              <mxPoint x="-1143.27" y="2639.91" />
            </Array>
          </mxGeometry>
        </mxCell>
        <mxCell id="T6Oe0h_qcBVAluAfO9DY-337" value="Ajoute des produits &amp;gt; (if employé/admin = 1)&amp;nbsp;" style="edgeLabel;html=1;align=center;verticalAlign=middle;resizable=0;points=[];" parent="T6Oe0h_qcBVAluAfO9DY-336" vertex="1" connectable="0">
          <mxGeometry x="-0.1278" y="-2" relative="1" as="geometry">
            <mxPoint as="offset" />
          </mxGeometry>
        </mxCell>
        <mxCell id="T6Oe0h_qcBVAluAfO9DY-339" value="0..*" style="edgeLabel;html=1;align=center;verticalAlign=middle;resizable=0;points=[];" parent="1" vertex="1" connectable="0">
          <mxGeometry x="-1909.2666656412384" y="2713.905233654869" as="geometry">
            <mxPoint x="606" y="-157" as="offset" />
          </mxGeometry>
        </mxCell>
        <mxCell id="sg-jxr4v8bj3WIG_Sv-r-1" value="" style="whiteSpace=wrap;html=1;aspect=fixed;fillColor=#D9777F;strokeColor=#000000;" vertex="1" parent="1">
          <mxGeometry x="-1585.9999999999998" y="994" width="110" height="110" as="geometry" />
        </mxCell>
        <mxCell id="sg-jxr4v8bj3WIG_Sv-r-2" value="Visiteur (Aucun rôle)" style="shape=umlActor;verticalLabelPosition=bottom;verticalAlign=top;html=1;outlineConnect=0;" vertex="1" parent="1">
          <mxGeometry x="-1574.51" y="930" width="87" height="174" as="geometry" />
        </mxCell>
        <mxCell id="sg-jxr4v8bj3WIG_Sv-r-8" style="edgeStyle=orthogonalEdgeStyle;rounded=0;orthogonalLoop=1;jettySize=auto;html=1;exitX=1;exitY=0.25;exitDx=0;exitDy=0;entryX=0.003;entryY=0.406;entryDx=0;entryDy=0;entryPerimeter=0;" edge="1" parent="1" source="T6Oe0h_qcBVAluAfO9DY-2" target="T6Oe0h_qcBVAluAfO9DY-326">
          <mxGeometry relative="1" as="geometry">
            <mxPoint x="-1090" y="1640" as="targetPoint" />
            <Array as="points">
              <mxPoint x="-1278" y="1640" />
            </Array>
          </mxGeometry>
        </mxCell>
        <mxCell id="sg-jxr4v8bj3WIG_Sv-r-11" style="edgeStyle=orthogonalEdgeStyle;rounded=0;orthogonalLoop=1;jettySize=auto;html=1;entryX=0;entryY=0.5;entryDx=0;entryDy=0;" edge="1" parent="1" source="T6Oe0h_qcBVAluAfO9DY-3" target="T6Oe0h_qcBVAluAfO9DY-15">
          <mxGeometry relative="1" as="geometry">
            <Array as="points">
              <mxPoint x="-1269" y="1420" />
              <mxPoint x="-1269" y="1355" />
            </Array>
          </mxGeometry>
        </mxCell>
        <mxCell id="sg-jxr4v8bj3WIG_Sv-r-12" style="edgeStyle=orthogonalEdgeStyle;rounded=0;orthogonalLoop=1;jettySize=auto;html=1;exitX=1;exitY=0.75;exitDx=0;exitDy=0;entryX=0;entryY=0.75;entryDx=0;entryDy=0;" edge="1" parent="1" source="T6Oe0h_qcBVAluAfO9DY-3" target="T6Oe0h_qcBVAluAfO9DY-17">
          <mxGeometry relative="1" as="geometry" />
        </mxCell>
        <mxCell id="sg-jxr4v8bj3WIG_Sv-r-16" style="edgeStyle=orthogonalEdgeStyle;rounded=0;orthogonalLoop=1;jettySize=auto;html=1;entryX=0.015;entryY=0.649;entryDx=0;entryDy=0;entryPerimeter=0;" edge="1" parent="1" target="T6Oe0h_qcBVAluAfO9DY-16">
          <mxGeometry relative="1" as="geometry">
            <mxPoint x="-1476.99" y="1439.33" as="sourcePoint" />
            <mxPoint x="-1059.26" y="1439.67" as="targetPoint" />
            <Array as="points" />
          </mxGeometry>
        </mxCell>
        <mxCell id="sg-jxr4v8bj3WIG_Sv-r-17" style="edgeStyle=orthogonalEdgeStyle;rounded=0;orthogonalLoop=1;jettySize=auto;html=1;entryX=0.009;entryY=0.422;entryDx=0;entryDy=0;entryPerimeter=0;" edge="1" parent="1" target="T6Oe0h_qcBVAluAfO9DY-14">
          <mxGeometry relative="1" as="geometry">
            <mxPoint x="-1120" y="1260" as="targetPoint" />
            <mxPoint x="-1476.9899999999998" y="1273" as="sourcePoint" />
            <Array as="points">
              <mxPoint x="-1477" y="1260" />
            </Array>
          </mxGeometry>
        </mxCell>
        <mxCell id="sg-jxr4v8bj3WIG_Sv-r-18" style="edgeStyle=orthogonalEdgeStyle;rounded=0;orthogonalLoop=1;jettySize=auto;html=1;entryX=0.004;entryY=0.565;entryDx=0;entryDy=0;entryPerimeter=0;" edge="1" parent="1" target="T6Oe0h_qcBVAluAfO9DY-12">
          <mxGeometry relative="1" as="geometry">
            <mxPoint x="-1115" y="1190" as="targetPoint" />
            <mxPoint x="-1477" y="1219" as="sourcePoint" />
            <Array as="points">
              <mxPoint x="-1477" y="1217" />
              <mxPoint x="-1150" y="1217" />
              <mxPoint x="-1150" y="1190" />
            </Array>
          </mxGeometry>
        </mxCell>
        <mxCell id="sg-jxr4v8bj3WIG_Sv-r-20" style="edgeStyle=orthogonalEdgeStyle;rounded=0;orthogonalLoop=1;jettySize=auto;html=1;entryX=-0.015;entryY=0.333;entryDx=0;entryDy=0;entryPerimeter=0;" edge="1" parent="1" source="sg-jxr4v8bj3WIG_Sv-r-1" target="T6Oe0h_qcBVAluAfO9DY-10">
          <mxGeometry relative="1" as="geometry">
            <Array as="points">
              <mxPoint x="-1370" y="1000" />
            </Array>
          </mxGeometry>
        </mxCell>
        <mxCell id="sg-jxr4v8bj3WIG_Sv-r-21" style="edgeStyle=orthogonalEdgeStyle;rounded=0;orthogonalLoop=1;jettySize=auto;html=1;entryX=0.016;entryY=0.371;entryDx=0;entryDy=0;entryPerimeter=0;" edge="1" parent="1" source="sg-jxr4v8bj3WIG_Sv-r-1" target="T6Oe0h_qcBVAluAfO9DY-13">
          <mxGeometry relative="1" as="geometry">
            <Array as="points">
              <mxPoint x="-1340" y="1076" />
              <mxPoint x="-1340" y="1045" />
              <mxPoint x="-1290" y="1045" />
            </Array>
          </mxGeometry>
        </mxCell>
        <mxCell id="sg-jxr4v8bj3WIG_Sv-r-22" style="edgeStyle=orthogonalEdgeStyle;rounded=0;orthogonalLoop=1;jettySize=auto;html=1;entryX=0.004;entryY=0.402;entryDx=0;entryDy=0;entryPerimeter=0;" edge="1" parent="1" source="sg-jxr4v8bj3WIG_Sv-r-1" target="T6Oe0h_qcBVAluAfO9DY-11">
          <mxGeometry relative="1" as="geometry">
            <mxPoint x="-1130" y="1010" as="targetPoint" />
            <Array as="points">
              <mxPoint x="-1308" y="1020" />
              <mxPoint x="-1308" y="1009" />
              <mxPoint x="-1130" y="1009" />
            </Array>
          </mxGeometry>
        </mxCell>
        <mxCell id="sg-jxr4v8bj3WIG_Sv-r-26" style="edgeStyle=orthogonalEdgeStyle;rounded=0;orthogonalLoop=1;jettySize=auto;html=1;entryX=0.016;entryY=0.862;entryDx=0;entryDy=0;entryPerimeter=0;" edge="1" parent="1" source="T6Oe0h_qcBVAluAfO9DY-2" target="T6Oe0h_qcBVAluAfO9DY-20">
          <mxGeometry relative="1" as="geometry">
            <mxPoint x="-1080" y="1620" as="targetPoint" />
            <Array as="points">
              <mxPoint x="-1110" y="1620" />
            </Array>
          </mxGeometry>
        </mxCell>
        <mxCell id="T6Oe0h_qcBVAluAfO9DY-20" value="&lt;font color=&quot;#f2f2f2&quot;&gt;Gérer employés&lt;/font&gt;" style="rounded=1;whiteSpace=wrap;html=1;fillColor=#262526;" parent="1" vertex="1">
          <mxGeometry x="-1067.75" y="1560" width="140" height="70" as="geometry" />
        </mxCell>
        <mxCell id="T6Oe0h_qcBVAluAfO9DY-17" value="&lt;font color=&quot;#f2f2f2&quot;&gt;Modifier les fiches des voitures/services&lt;/font&gt;" style="rounded=1;whiteSpace=wrap;html=1;fillColor=#262526;" parent="1" vertex="1">
          <mxGeometry x="-1060.25" y="1475" width="140.25" height="75" as="geometry" />
        </mxCell>
        <mxCell id="T6Oe0h_qcBVAluAfO9DY-16" value="&lt;font color=&quot;#f2f2f2&quot;&gt;Gérer offres&lt;/font&gt;" style="rounded=1;whiteSpace=wrap;html=1;fillColor=#262526;" parent="1" vertex="1">
          <mxGeometry x="-1060.25" y="1395" width="140" height="70" as="geometry" />
        </mxCell>
        <mxCell id="T6Oe0h_qcBVAluAfO9DY-15" value="&lt;font color=&quot;#f2f2f2&quot;&gt;Gérer véhicules&lt;/font&gt;" style="rounded=1;whiteSpace=wrap;html=1;fillColor=#262526;" parent="1" vertex="1">
          <mxGeometry x="-1060.75" y="1320" width="140" height="70" as="geometry" />
        </mxCell>
        <mxCell id="T6Oe0h_qcBVAluAfO9DY-14" value="&lt;font color=&quot;#f2f2f2&quot;&gt;Passer une commande (contenu de son panier)&lt;/font&gt;" style="rounded=1;whiteSpace=wrap;html=1;fillColor=#262526;" parent="1" vertex="1">
          <mxGeometry x="-1123.27" y="1230" width="140" height="70" as="geometry" />
        </mxCell>
        <mxCell id="T6Oe0h_qcBVAluAfO9DY-12" value="&lt;font color=&quot;#f2f2f2&quot;&gt;Mettre dans son panier un produit/service&lt;/font&gt;" style="rounded=1;whiteSpace=wrap;html=1;fillColor=#262526;" parent="1" vertex="1">
          <mxGeometry x="-1123.27" y="1150" width="140" height="70" as="geometry" />
        </mxCell>
        <mxCell id="sg-jxr4v8bj3WIG_Sv-r-30" value="&lt;font style=&quot;font-size: 16px;&quot;&gt;Serveur&amp;nbsp;&lt;/font&gt;" style="rounded=0;whiteSpace=wrap;html=1;" vertex="1" parent="1">
          <mxGeometry x="-579.25" y="-790" width="120" height="60" as="geometry" />
        </mxCell>
        <mxCell id="sg-jxr4v8bj3WIG_Sv-r-31" value="Includes &amp;gt;&lt;br&gt;Se connecter&amp;nbsp;" style="rounded=0;whiteSpace=wrap;html=1;" vertex="1" parent="1">
          <mxGeometry x="-818" y="1104" width="120" height="60" as="geometry" />
        </mxCell>
        <mxCell id="sg-jxr4v8bj3WIG_Sv-r-32" style="edgeStyle=orthogonalEdgeStyle;rounded=0;orthogonalLoop=1;jettySize=auto;html=1;entryX=0.947;entryY=0.274;entryDx=0;entryDy=0;entryPerimeter=0;" edge="1" parent="1" source="sg-jxr4v8bj3WIG_Sv-r-31" target="sg-jxr4v8bj3WIG_Sv-r-28">
          <mxGeometry relative="1" as="geometry" />
        </mxCell>
      </root>
    </mxGraphModel>
  </diagram>
</mxfile>
